<svg xmlns="http://www.w3.org/2000/svg" version="1.1" xmlns:xlink="http://www.w3.org/1999/xlink" xmlns:svgjs="http://svgjs.dev/svgjs" width="2000" height="2250" viewBox="0 0 2000 2250"><g transform="matrix(1,0,0,1,0.000015624999718966137,0)"><svg viewBox="0 0 320 360" data-background-color="#1e1f28" preserveAspectRatio="xMidYMid meet" height="2250" width="2000" xmlns="http://www.w3.org/2000/svg" xmlns:xlink="http://www.w3.org/1999/xlink"><g id="tight-bounds" transform="matrix(1,0,0,1,0.0000025000000505315256,0)"><svg viewBox="0 0 320 360" height="360" width="320"><g><svg></svg></g><g><svg viewBox="0 0 320 360" height="360" width="320"><g><path transform="translate(-19.44751,3.1739) scale(3.53591,3.53591)" d="M67.6 10.7c0.2 0 1.8 0.8 2.7 1.1-0.3 0.1-1-0.2-1.8-0.5 0.2 0 0.6 0.1 1 0.3-0.2-0.2-1.7-0.7-1.9-0.9M52.7 7.6c0.3-0.1 3.8 0.4 5.4 0.5 0.1-0.1-0.2-0.1-0.6-0.2 0.5-0.1 1.5 0.2 2.2 0.3-2.1 0.1-4.4-0.5-6.4-0.3-0.7 0-0.2-0.2-0.6-0.3M49.8 7.6c1.8 0 3.2 0 0.6 0.2-0.3-0.1-0.7-0.1-0.6-0.2M78.1 15.9c0.2 0 1 0.9 1.4 1.2-0.1 0.1-0.9-0.7-1.3-1 0.1 0.1 0 0-0.1-0.2M76.1 14.6c-0.8-0.7-1.1-0.7-1.2-1.1 0.7 0.4 1.2 0.8 1.2 1.1M63.2 8.3c0.1-0.1 0.3 0.1 0.8 0.2-0.6-0.1-0.5 0-0.3 0.2-0.7-0.1-0.9-0.2-0.7-0.4 0.4 0.2 0.5 0.1 0.2 0M34.8 9.5c0-0.1 0.4-0.3 0.7-0.4-0.3 0.2-0.2 0.3 0.3 0.1 0 0.1-0.6 0.3-1 0.5 0.2-0.1 0.4-0.4 0-0.2M65.2 7.3c-0.3 0.1-1.4-0.5-2.5-0.7-0.6-0.2 2.4 0.5 2.5 0.7M6.2 56.7c0.6 2.5 0.2 2.4 0 0M6.3 41.7c0.1-0.4 0.2-1.5 0.3-1.4-0.3 2.4-0.8 3.5-0.9 5.3 0.3-1.6-0.1 0.9-0.2 1.5 0.1 0.8 0.1-0.5 0.3-0.3 0.2 0.3-0.4 4.5-0.2 2.2-0.2 2.1 0 4.4 0.4 5-0.5 3.2 2 10.4 2.5 11.9 0.1 0.1 0-0.5 0.2-0.1 0.2 1.3 1.1 2.2 1.4 3.6 0.3 0.4 1.5 2.6 1.7 3.1 0.4 0.8 0.6 0.7 1 1.5 1.2 2.3 3.1 4.5 4.9 6.6 5.8 6.8 14.7 12.4 24.6 14.4 9.9 2.1 20.3 0.6 28.4-3.3 0.5-0.3 0.4-0.4 1-0.6 2.8-0.9 6.2-3.8 8.1-4.9 0.9-1 3.3-2.7 3.6-3.7 1.7-1.4 3.4-3.7 4.3-5.2 0.5-0.8 0.9-0.8 1.1-1.3-0.1 0 1.6-2.1 2.1-3.3-0.2 0-0.5 0.6-0.5 0 3.6-6.9 5.6-16.2 4.5-22.6 0.2 7.9-1.8 16.7-5.6 22.3-1.7 3.6-5.2 7.5-8.4 10.3-0.5 0.5-1 1.1-1.6 1.5-1.9 1.6-4 2.9-6.2 4.1-5.2 2.9-11 5.4-17.8 5.5 11.7-1 22.2-6.9 28-14.1-4.4 4.3-6.3 6-11.2 8.5-0.4 0.7-3.7 2.1-5.9 2.7 1.3-0.6 4-1.6 4.9-2.4-7.3 3.5-15.4 5.5-23 4.4 2.9 0 7 0.1 10.9-0.6 0.6-0.2 0.9-0.4 1.6-0.5 7.6-1.7 14.9-5.4 20.1-10.6-3 2.7-7.5 5.9-10.4 6.9 2.7-1.5 7.6-4.4 9.2-6.6-3.2 3.2-9.2 6.4-13 7.8-0.6 0.1 0.4-0.4-0.6 0-1.2 0.3-0.7 0.3-1 0.5-4.6 1.3-9.9 2.4-14.3 2-0.8-0.1-1.1-0.3-1.8-0.3-0.8-0.1-1.5-0.1-2.4-0.1-3.5-0.4-7.3-1.8-10.1-3-1.5-0.7-3-1.2-4.5-2.1-1.2-0.7-2.2-1.5-3.2-2.3-3.8-2.8-7-5.6-10-9.6-5.4-7.5-8.2-16.9-7.8-26.2 0.4-9.3 4.1-18.4 10-25.1-0.3 0.3 0.4-0.7 1-1.3 0 0.2-0.1 0.5 0.6-0.2 0.6-0.7-0.2-0.2 0.1-0.6 6.2-6.8 17-12.3 28.1-12.5 0.4-0.3 1.1-0.7 1.9-0.5 0 0.1-0.5 0.1-0.5 0.1 1.1-0.1 2.1-0.1 2.6 0.1 0.1-0.1-0.4-0.2 0-0.2 0.7 0.2 0.9 0 1.3 0.2-0.3 0-0.6 0-0.8 0.1 2.5 0 4.1 0.6 6.6 0.8-1.3-0.3-1.6-0.3-2.6-0.6 1.1 0.2 1.6 0.4 2.1 0.3-0.2 0-0.1-0.3 0.1-0.2 2 0.5 2.2 0.7 4.3 1.4 0.2-0.2-0.9-0.3-1.2-0.6 2 0.7 3.8 1.2 5 2-0.4-0.3-1.6-0.7-2.5-1.1-0.1 0.1 0.3 0.2 0.4 0.4-1-0.5-2.4-1-3.8-1.2 1.2 0.3 2 0.7 2.5 0.9-1.1-0.2-2.5-0.9-4.1-1.2 2.6 0.8 7.5 2.6 10.5 4.2-1.1-0.7-2.4-1.2-3.1-1.6 0.6 0.1 1.3 0.5 1.3 0.3 0.7 0.3 1.6 1 2.1 1.1-0.9-0.6-2.7-1.5-3.3-1.8 7.5 3.4 14.2 9.1 18.5 16.4 0.4 0.7 1 2.3 1.5 2.5-0.1-0.5-0.5-0.8-0.9-1.6 0.2 0 0.2-0.3 0-0.6-0.4-0.5 0 0.4-0.4-0.1-1.8-3.3-4-6.2-7.4-9.4 1.9 1.8 0.5 0.5 0.1-0.1 2.6 2.3 5.6 6.2 6.9 8.2-0.2-0.3-0.3-0.5-0.2-0.5 2.4 4.1 3.9 7.8 5.4 13.1 0.1 0.1 0-0.4 0.2-0.1 1 4.2 1.3 7.7 1.2 10.9 0.8-5.4-1-13.8-4.2-20.4-0.4-0.8-0.4-0.2-0.8-1.1 0-0.3-0.3-0.9-0.5-1.3-4-6.6-8.9-11.3-14.7-15 0.4 0.2 1.2 0.8 1.2 0.7-10.8-7.1-23.3-8.1-33.6-5.9-0.7 0.3-1 0.6-1.8 1 1.5-0.5 2.4-0.6 3.8-0.9 0.3-0.3-1.3 0.1-0.6-0.2 0.1 0.1 1.4-0.2 1.7-0.1 0 0.1-0.4 0.2-0.5 0.3 3.3-0.7 6.7-0.8 9.6-0.6-1.7 0.1-4.8-0.2-5.8 0.3 1-0.1 2.4-0.2 3.3-0.1-1.2 0-3.4 0.1-4.4 0.2-0.1-0.1 1.6-0.3 0.5-0.3-0.5 0.1-1.3 0.1-1.6 0.4-8.6 0.8-17 5.3-22.9 10.6-1.2 1-2.6 2.1-3.5 3.2-2.2 2.5-3.6 5-5.2 7.2 1-2.1 3.2-5.3 5.8-8 2.6-2.7 5.4-5 6.9-6.2 0 0.4 2.4-1.5 3.3-2.1-0.6 0.5 0.4-0.2 0.6-0.1 3.2-1.9 5.8-2.6 8.7-3.7-0.7 0.2-1.3 0.4-1.4 0.3 0.7-0.2 1.1-0.4 1-0.5-2.8 0.8-7.2 2.7-10.7 4.8 6.3-4.3 14.3-6.9 22.2-7 7.9-0.2 15.6 1.8 21.7 5 4.1 1.8 8 5.1 11.1 8.3 0.9 0.8 0.2-0.2 1.5 1.2-0.4-0.2-0.7-0.4-0.2 0.2 0.8 0.9-0.2-0.7 1.1 0.9-0.1 0-0.5-0.5-0.5-0.3 3.5 3.1 6.2 8.7 7.8 12.4-0.4-1.5-1.4-3.6-2.2-5.1 2.4 4.4 3.2 7 4.2 10.9 0.4 0.3-0.2-1.4 0.2-0.6 0.1 0.6 0.2 2.5 0.6 2.8-0.3-1.9-0.8-4.2-1.2-4.6 0.3 0.2-0.5-2.3-1-2.9-0.2-1.6-1.6-4.4-2.8-6.5-4.3-8.4-12-15.3-20.6-19.1 0-0.2-0.5-0.4-0.7-0.6-8.5-3.6-18.7-4.6-28.5-2.3-9.9 2.4-19.2 8.1-25.8 16.3 0.3-1 2.8-2.9 2.9-3.7-2.9 3.1-6 7.2-8.1 11.6-2.2 4.4-3.4 8.9-3.9 12.2" fill="#018279" fill-rule="nonzero" stroke="none" stroke-width="1" stroke-linecap="butt" stroke-linejoin="miter" stroke-miterlimit="10" stroke-dasharray="" stroke-dashoffset="0" font-family="none" font-weight="none" font-size="none" text-anchor="none" style="mix-blend-mode: normal" data-fill-palette-color="tertiary"></path></g><g transform="matrix(1,0,0,1,48,110.48159941044577)"><svg viewBox="0 0 224 139.03680117910847" height="139.03680117910847" width="224"><g><svg viewBox="0 0 224 139.03680117910847" height="139.03680117910847" width="224"><g transform="matrix(1,0,0,1,0,102.98328947342284)"><svg viewBox="0 0 224 36.053511705685615" height="36.053511705685615" width="224"><g id="textblocktransform"><svg viewBox="0 0 224 36.053511705685615" height="36.053511705685615" width="224" id="textblock"><g><svg viewBox="0 0 224 36.053511705685615" height="36.053511705685615" width="224"><g transform="matrix(1,0,0,1,0,0)"><svg width="224" viewBox="3.05 -38 239.17999999999998 38.5" height="36.053511705685615" data-palette-color="#018279"><path d="M20.15-32.25L20.15-32.25Q14.4-32.25 11.1-28.4 7.8-24.55 7.8-17.85L7.8-17.85Q7.8-11.2 10.88-7.33 13.95-3.45 20.1-3.45L20.1-3.45Q22.45-3.45 24.55-3.85 26.65-4.25 28.65-4.85L28.65-4.85 28.65-0.95Q26.65-0.2 24.53 0.15 22.4 0.5 19.45 0.5L19.45 0.5Q14 0.5 10.35-1.75 6.7-4 4.88-8.15 3.05-12.3 3.05-17.9L3.05-17.9Q3.05-23.3 5.03-27.43 7-31.55 10.85-33.88 14.7-36.2 20.2-36.2L20.2-36.2Q25.85-36.2 30.05-34.1L30.05-34.1 28.25-30.3Q26.6-31.05 24.58-31.65 22.55-32.25 20.15-32.25ZM59.15-13.45L59.15-13.45Q59.15-6.8 55.77-3.15 52.4 0.5 46.65 0.5L46.65 0.5Q43.1 0.5 40.32-1.13 37.55-2.75 35.95-5.88 34.35-9 34.35-13.45L34.35-13.45Q34.35-20.1 37.7-23.7 41.05-27.3 46.8-27.3L46.8-27.3Q50.45-27.3 53.22-25.68 56-24.05 57.57-20.98 59.15-17.9 59.15-13.45ZM38.9-13.45L38.9-13.45Q38.9-8.7 40.77-5.93 42.65-3.15 46.75-3.15L46.75-3.15Q50.8-3.15 52.7-5.93 54.6-8.7 54.6-13.45L54.6-13.45Q54.6-18.2 52.7-20.9 50.8-23.6 46.7-23.6L46.7-23.6Q42.6-23.6 40.75-20.9 38.9-18.2 38.9-13.45ZM76.84 0.5L76.84 0.5Q73.3 0.5 70.52-0.95 67.75-2.4 66.17-5.45 64.59-8.5 64.59-13.25L64.59-13.25Q64.59-18.2 66.25-21.3 67.89-24.4 70.72-25.85 73.55-27.3 77.14-27.3L77.14-27.3Q79.19-27.3 81.09-26.88 83-26.45 84.19-25.85L84.19-25.85 82.84-22.2Q81.64-22.65 80.05-23.05 78.44-23.45 77.05-23.45L77.05-23.45Q69.14-23.45 69.14-13.3L69.14-13.3Q69.14-8.45 71.07-5.88 73-3.3 76.8-3.3L76.8-3.3Q79-3.3 80.67-3.75 82.34-4.2 83.75-4.85L83.75-4.85 83.75-0.95Q82.39-0.25 80.77 0.13 79.14 0.5 76.84 0.5ZM94.44-38L94.44-18.15Q94.44-17.35 94.37-16.05 94.29-14.75 94.24-13.8L94.24-13.8 94.44-13.8Q94.74-14.2 95.34-14.95 95.94-15.7 96.57-16.48 97.19-17.25 97.64-17.75L97.64-17.75 106.19-26.8 111.34-26.8 100.49-15.35 112.09 0 106.79 0 97.49-12.5 94.44-9.85 94.44 0 90.09 0 90.09-38 94.44-38ZM125.74-3.1L125.74-3.1Q126.74-3.1 127.79-3.28 128.84-3.45 129.49-3.65L129.49-3.65 129.49-0.3Q128.79 0.05 127.49 0.28 126.19 0.5 124.99 0.5L124.99 0.5Q122.89 0.5 121.12-0.23 119.34-0.95 118.24-2.75 117.14-4.55 117.14-7.8L117.14-7.8 117.14-23.4 113.34-23.4 113.34-25.5 117.19-27.25 118.94-32.95 121.54-32.95 121.54-26.8 129.29-26.8 129.29-23.4 121.54-23.4 121.54-7.9Q121.54-5.45 122.72-4.28 123.89-3.1 125.74-3.1ZM144.99-27.25L144.99-27.25Q149.89-27.25 152.24-25.1 154.59-22.95 154.59-18.25L154.59-18.25 154.59 0 151.39 0 150.54-3.8 150.34-3.8Q148.59-1.6 146.66-0.55 144.74 0.5 141.34 0.5L141.34 0.5Q137.69 0.5 135.29-1.43 132.89-3.35 132.89-7.45L132.89-7.45Q132.89-11.45 136.04-13.63 139.19-15.8 145.74-16L145.74-16 150.29-16.15 150.29-17.75Q150.29-21.1 148.84-22.4 147.39-23.7 144.74-23.7L144.74-23.7Q142.64-23.7 140.74-23.08 138.84-22.45 137.19-21.65L137.19-21.65 135.84-24.95Q137.59-25.9 139.99-26.58 142.39-27.25 144.99-27.25ZM150.24-13.1L146.29-12.95Q141.29-12.75 139.36-11.35 137.44-9.95 137.44-7.4L137.44-7.4Q137.44-5.15 138.81-4.1 140.19-3.05 142.34-3.05L142.34-3.05Q145.74-3.05 147.99-4.93 150.24-6.8 150.24-10.7L150.24-10.7 150.24-13.1ZM165.14-36.85L165.14-36.85Q166.14-36.85 166.91-36.18 167.69-35.5 167.69-34.05L167.69-34.05Q167.69-32.65 166.91-31.95 166.14-31.25 165.14-31.25L165.14-31.25Q164.04-31.25 163.29-31.95 162.54-32.65 162.54-34.05L162.54-34.05Q162.54-35.5 163.29-36.18 164.04-36.85 165.14-36.85ZM162.89-26.8L167.29-26.8 167.29 0 162.89 0 162.89-26.8ZM180.18-38L180.18 0 175.78 0 175.78-38 180.18-38ZM211.98-13.45L211.98-13.45Q211.98-6.8 208.61-3.15 205.23 0.5 199.48 0.5L199.48 0.5Q195.93 0.5 193.16-1.13 190.38-2.75 188.78-5.88 187.18-9 187.18-13.45L187.18-13.45Q187.18-20.1 190.53-23.7 193.88-27.3 199.63-27.3L199.63-27.3Q203.28-27.3 206.06-25.68 208.83-24.05 210.41-20.98 211.98-17.9 211.98-13.45ZM191.73-13.45L191.73-13.45Q191.73-8.7 193.61-5.93 195.48-3.15 199.58-3.15L199.58-3.15Q203.63-3.15 205.53-5.93 207.43-8.7 207.43-13.45L207.43-13.45Q207.43-18.2 205.53-20.9 203.63-23.6 199.53-23.6L199.53-23.6Q195.43-23.6 193.58-20.9 191.73-18.2 191.73-13.45ZM242.23-13.45L242.23-13.45Q242.23-6.8 238.85-3.15 235.48 0.5 229.73 0.5L229.73 0.5Q226.18 0.5 223.4-1.13 220.63-2.75 219.03-5.88 217.43-9 217.43-13.45L217.43-13.45Q217.43-20.1 220.78-23.7 224.13-27.3 229.88-27.3L229.88-27.3Q233.53-27.3 236.3-25.68 239.08-24.05 240.65-20.98 242.23-17.9 242.23-13.45ZM221.98-13.45L221.98-13.45Q221.98-8.7 223.85-5.93 225.73-3.15 229.83-3.15L229.83-3.15Q233.88-3.15 235.78-5.93 237.68-8.7 237.68-13.45L237.68-13.45Q237.68-18.2 235.78-20.9 233.88-23.6 229.78-23.6L229.78-23.6Q225.68-23.6 223.83-20.9 221.98-18.2 221.98-13.45Z" opacity="1" transform="matrix(1,0,0,1,0,0)" fill="#018279" class="wordmark-text-0" data-fill-palette-color="primary" id="text-0"></path></svg></g></svg></g></svg></g></svg></g><g transform="matrix(1,0,0,1,69.01972409272003,0)"><svg viewBox="0 0 85.96055181455996 85.96055181455996" height="85.96055181455996" width="85.96055181455996"><g><svg></svg></g><g id="icon-0"><svg viewBox="0 0 85.96055181455996 85.96055181455996" height="85.96055181455996" width="85.96055181455996"><g><path d="M0 42.98c0-23.737 19.243-42.98 42.98-42.98 23.737 0 42.98 19.243 42.981 42.98 0 23.737-19.243 42.98-42.981 42.981-23.737 0-42.98-19.243-42.98-42.981zM42.98 82.709c21.942 0 39.729-17.787 39.729-39.729 0-21.942-17.787-39.729-39.729-39.729-21.942 0-39.729 17.787-39.729 39.729 0 21.942 17.787 39.729 39.729 39.729z" data-fill-palette-color="accent" fill="#018279" stroke="transparent"></path><ellipse rx="42.55047314820718" ry="42.55047314820718" cx="42.98027590727998" cy="42.98027590727998" fill="#018279" stroke="transparent" stroke-width="0" fill-opacity="1" data-fill-palette-color="accent"></ellipse></g><g transform="matrix(1,0,0,1,19.399741846350338,19.78198826012616)"><svg viewBox="0 0 47.16106812185929 46.396575294307645" height="46.396575294307645" width="47.16106812185929"><g><svg xmlns="http://www.w3.org/2000/svg" xmlns:xlink="http://www.w3.org/1999/xlink" version="1.1" x="0" y="0" viewBox="0.000007710398120544526 1.623 99.99799272239335 98.377" enable-background="new 0 0 100 100" xml:space="preserve" height="46.396575294307645" width="47.16106812185929" class="icon-cg-0" data-fill-palette-color="quaternary" id="cg-0"><g fill="#1e1f28" data-fill-palette-color="quaternary"><path fill="#1e1f28" d="M84.518 1.623c-8.551 0-15.84 7.077-15.436 16.153-3.453 0.532-7.836 1.063-10.988 1.063-5.99 0-27.012-4.111-30.154-4.111-5.475 0-15.157 2.087-15.157 2.087 10.178 9.94 29.775 28.755 29.775 28.753 0.281 0.247 0.639 0.41 1.042 0.41 0.457 0 0.866-0.199 1.158-0.51 2.686-2.425 32.163-31.119 34.534-33.439 0.979-0.947 1.443-1.027 2.203-1.027 0.602 0 1.164 0.215 1.627 0.623 0.516 0.451 0.818 1.065 0.854 1.725 0.037 0.68-0.211 1.338-0.701 1.924-0.143 0.123-31.938 31.219-35.486 34.301-1.966 1.71-2.675 2.114-4.188 2.161-1.513-0.047-2.222-0.451-4.19-2.161C35.86 46.493 4.351 15.661 4.351 15.661c-1.301-1.261-2.62-1.889-3.698-0.939-1.053 0.926-0.731 2.164 0.245 3.23 0 0 35.676 37.602 38.709 41.391 1.248 1.555 1.376 1.883 1.317 3.432-0.055 1.55-0.884 28.354-0.884 28.354-0.069 1.605-0.192 2.094-0.813 2.793-0.665 0.654-2.982 0.957-4.561 1.277-3.377 0.682-12.59 2.258-12.59 2.258-1.118 0.045-1.959 0.369-1.992 1.254-0.033 0.861 0.658 1.273 1.549 1.289 0 0 14.118-0.654 21.966-0.654 7.846 0 21.965 0.654 21.965 0.654 0.891-0.016 1.582-0.428 1.549-1.289-0.033-0.885-0.873-1.209-1.992-1.254 0 0-9.213-1.576-12.59-2.258-1.578-0.32-3.896-0.623-4.562-1.277-0.621-0.699-0.742-1.188-0.812-2.793 0 0-0.829-26.804-0.884-28.354-0.059-1.549 0.069-1.877 1.316-3.432 1.924-2.404 16.98-18.41 27.734-29.795 2.572 1.906 5.748 3.042 9.193 3.042 8.553 0 15.482-6.935 15.482-15.486C100 8.553 93.07 1.623 84.518 1.623z" data-fill-palette-color="quaternary"></path></g></svg></g></svg></g></svg></g></svg></g><g></g></svg></g></svg></g></svg></g><defs></defs></svg><rect width="320" height="360" fill="none" stroke="none" visibility="hidden"></rect></g></svg></g></svg>